M48
; DRILL file {KiCad 7.0.11-7.0.11~ubuntu20.04.1} date Tue Mar  4 17:49:28 2025
; FORMAT={-:-/ absolute / metric / decimal}
; #@! TF.CreationDate,2025-03-04T17:49:28+00:00
; #@! TF.GenerationSoftware,Kicad,Pcbnew,7.0.11-7.0.11~ubuntu20.04.1
; #@! TF.FileFunction,MixedPlating,1,4
FMAT,2
METRIC
; #@! TA.AperFunction,Plated,PTH,ComponentDrill
T1C0.300
; #@! TA.AperFunction,Plated,PTH,ComponentDrill
T2C0.708
; #@! TA.AperFunction,Plated,PTH,ComponentDrill
T3C0.800
; #@! TA.AperFunction,Plated,PTH,ComponentDrill
T4C1.000
; #@! TA.AperFunction,Plated,PTH,ComponentDrill
T5C1.100
; #@! TA.AperFunction,Plated,PTH,ComponentDrill
T6C1.320
; #@! TA.AperFunction,Plated,PTH,ComponentDrill
T7C3.200
%
G90
G05
T1
X-35.0Y28.5
X-35.0Y13.5
X-35.0Y-1.5
X-35.0Y-16.5
X-34.945Y4.917
X-29.298Y-10.256
X-26.934Y4.48
X-25.84Y20.033
X-24.77Y-9.811
X-20.0Y28.5
X-20.0Y-1.5
X-19.235Y-14.985
X-18.22Y-9.927
X-18.22Y14.732
X-16.695Y-14.985
X-16.695Y-19.487
X-14.155Y-14.985
X-13.14Y-19.559
X-12.995Y14.77
X-11.848Y-1.18
X-10.601Y-14.985
X-9.584Y14.854
X-9.584Y-19.558
X-7.044Y14.854
X-5.424Y-14.986
X-5.0Y28.5
X-4.504Y14.854
X-0.44Y-14.985
X0.296Y14.773
X2.1Y20.033
X2.836Y14.773
X2.976Y-14.985
X3.296Y-8.506
X4.64Y-19.69
X5.376Y14.773
X10.0Y28.5
X11.655Y18.396
X12.544Y5.041
X15.806Y-13.966
X25.0Y28.5
X25.0Y13.5
X25.0Y-16.5
X26.77Y-5.13
X37.204Y-4.664
X40.0Y28.5
X40.0Y13.5
X40.0Y-16.5
T2
X6.646Y4.555
X6.646Y-0.525
T3
X-5.08Y7.407
X5.08Y7.407
X7.464Y7.407
X17.624Y7.407
T4
X-38.388Y-3.81
X-38.388Y-1.27
X-38.388Y1.27
X-38.388Y3.81
X-29.65Y22.262
X-29.65Y17.805
X-29.65Y12.973
X-29.65Y-12.552
X-29.65Y-17.419
X-27.11Y22.262
X-27.11Y17.805
X-27.11Y12.973
X-27.11Y-12.552
X-27.11Y-17.419
X-24.57Y22.262
X-24.57Y17.805
X-24.57Y12.973
X-24.57Y-12.552
X-24.57Y-17.419
X-22.03Y22.262
X-22.03Y17.805
X-22.03Y12.973
X-22.03Y-12.552
X-22.03Y-17.419
X-19.49Y22.262
X-19.49Y-21.699
X-19.49Y17.805
X-19.49Y12.973
X-19.49Y-12.552
X-19.49Y-17.419
X-16.95Y22.262
X-16.95Y-21.699
X-16.95Y17.805
X-16.95Y12.973
X-16.95Y-12.552
X-16.95Y-17.419
X-14.41Y22.262
X-14.41Y-21.699
X-14.41Y17.805
X-14.41Y12.973
X-14.41Y-12.552
X-14.41Y-17.419
X-11.87Y22.262
X-11.87Y-21.699
X-11.87Y17.805
X-11.87Y12.973
X-11.87Y-12.552
X-11.87Y-17.419
X-9.33Y22.262
X-9.33Y-21.699
X-9.33Y17.805
X-9.33Y12.973
X-9.33Y-12.552
X-9.33Y-17.419
X-6.79Y22.262
X-6.79Y-21.699
X-6.79Y17.805
X-6.79Y12.973
X-6.79Y-12.552
X-6.79Y-17.419
X-4.25Y22.262
X-4.25Y-21.699
X-4.25Y17.805
X-4.25Y12.973
X-4.25Y-12.552
X-4.25Y-17.419
X-1.71Y22.262
X-1.71Y-21.699
X-1.71Y17.805
X-1.71Y12.973
X-1.71Y-12.552
X-1.71Y-17.419
X0.83Y22.262
X0.83Y17.805
X0.83Y12.973
X0.83Y-12.552
X0.83Y-17.419
X3.37Y22.262
X3.37Y17.805
X3.37Y12.973
X3.37Y-12.552
X3.37Y-17.419
X5.91Y22.262
X5.91Y17.805
X5.91Y12.973
X5.91Y-12.552
X5.91Y-17.419
X8.45Y22.262
X8.45Y17.805
X8.45Y12.973
X8.45Y-12.552
X8.45Y-17.419
X29.95Y21.555
X29.95Y13.955
T5
X32.217Y2.8
X32.217Y0.26
X32.218Y-2.28
T6
X42.742Y2.5
X42.742Y-2.5
T7
X-45.696Y27.901
X-45.696Y-27.47
X46.015Y27.901
X46.015Y-27.47
M30
