%TF.GenerationSoftware,Flux,Pcbnew,7.0.11-7.0.11~ubuntu20.04.1*%
%TF.CreationDate,2025-03-04T17:49:28+00:00*%
%TF.ProjectId,input,696e7075-742e-46b6-9963-61645f706362,rev?*%
%TF.SameCoordinates,Original*%
%TF.FileFunction,Soldermask,Top*%
%TF.FilePolarity,Negative*%
%FSLAX46Y46*%
G04 Gerber Fmt 4.6, Leading zero omitted, Abs format (unit mm)*
G04 Filename: balance-board-2*
G04 Build it with Flux! Visit our site at: https://www.flux.ai (PCBNEW 7.0.11-7.0.11~ubuntu20.04.1) date 2025-03-04 17:49:28*
%MOMM*%
%LPD*%
G01*
G04 APERTURE LIST*
G04 APERTURE END LIST*
%TO.C,*%
G36*
X-19164620Y18590369D02*
G01*
X-18972453Y18479422D01*
X-18815550Y18322519D01*
X-18704603Y18130353D01*
X-18647172Y17916020D01*
X-18647172Y17694125D01*
X-18704602Y17479791D01*
X-18815549Y17287625D01*
X-18972452Y17130722D01*
X-19164618Y17019774D01*
X-19378952Y16962343D01*
X-19600846Y16962343D01*
X-19815180Y17019774D01*
X-20007347Y17130721D01*
X-20164250Y17287624D01*
X-20275197Y17479790D01*
X-20332628Y17694123D01*
X-20332628Y17916018D01*
X-20275198Y18130352D01*
X-20164251Y18322518D01*
X-20007348Y18479421D01*
X-19815182Y18590369D01*
X-19600848Y18647800D01*
X-19378954Y18647800D01*
X-19164620Y18590369D01*
G37*
G36*
X-14084620Y18590375D02*
G01*
X-13892453Y18479428D01*
X-13735550Y18322525D01*
X-13624603Y18130358D01*
X-13567172Y17916025D01*
X-13567172Y17694130D01*
X-13624602Y17479797D01*
X-13735549Y17287630D01*
X-13892452Y17130727D01*
X-14084618Y17019779D01*
X-14298952Y16962349D01*
X-14520846Y16962348D01*
X-14735180Y17019779D01*
X-14927347Y17130726D01*
X-15084250Y17287629D01*
X-15195197Y17479795D01*
X-15252628Y17694129D01*
X-15252628Y17916023D01*
X-15195198Y18130357D01*
X-15084251Y18322523D01*
X-14927348Y18479427D01*
X-14735182Y18590374D01*
X-14520848Y18647805D01*
X-14298954Y18647805D01*
X-14084620Y18590375D01*
G37*
G36*
X3695380Y18590393D02*
G01*
X3887547Y18479446D01*
X4044450Y18322543D01*
X4155397Y18130377D01*
X4212828Y17916043D01*
X4212828Y17694148D01*
X4155398Y17479815D01*
X4044451Y17287648D01*
X3887548Y17130745D01*
X3695382Y17019798D01*
X3481048Y16962367D01*
X3259154Y16962367D01*
X3044820Y17019797D01*
X2852653Y17130744D01*
X2695750Y17287647D01*
X2584803Y17479813D01*
X2527372Y17694147D01*
X2527372Y17916041D01*
X2584802Y18130375D01*
X2695749Y18322541D01*
X2852652Y18479445D01*
X3044818Y18590392D01*
X3259152Y18647823D01*
X3481046Y18647823D01*
X3695380Y18590393D01*
G37*
G36*
X-26784620Y18590362D02*
G01*
X-26592453Y18479415D01*
X-26435550Y18322512D01*
X-26324603Y18130345D01*
X-26267172Y17916012D01*
X-26267172Y17694117D01*
X-26324602Y17479784D01*
X-26435549Y17287617D01*
X-26592452Y17130714D01*
X-26784618Y17019766D01*
X-26998952Y16962336D01*
X-27220846Y16962335D01*
X-27435180Y17019766D01*
X-27627347Y17130713D01*
X-27784250Y17287616D01*
X-27895197Y17479782D01*
X-27952628Y17694116D01*
X-27952628Y17916010D01*
X-27895198Y18130344D01*
X-27784251Y18322510D01*
X-27627348Y18479414D01*
X-27435182Y18590361D01*
X-27220848Y18647792D01*
X-26998954Y18647792D01*
X-26784620Y18590362D01*
G37*
G36*
X-1384620Y18590388D02*
G01*
X-1192453Y18479441D01*
X-1035550Y18322538D01*
X-924603Y18130371D01*
X-867172Y17916038D01*
X-867172Y17694143D01*
X-924602Y17479810D01*
X-1035549Y17287643D01*
X-1192452Y17130740D01*
X-1384618Y17019792D01*
X-1598952Y16962362D01*
X-1820846Y16962361D01*
X-2035180Y17019792D01*
X-2227347Y17130739D01*
X-2384250Y17287642D01*
X-2495197Y17479808D01*
X-2552628Y17694142D01*
X-2552628Y17916036D01*
X-2495198Y18130370D01*
X-2384251Y18322536D01*
X-2227348Y18479439D01*
X-2035182Y18590387D01*
X-1820848Y18647818D01*
X-1598954Y18647818D01*
X-1384620Y18590388D01*
G37*
G36*
X6235380Y18590395D02*
G01*
X6427547Y18479448D01*
X6584450Y18322545D01*
X6695397Y18130379D01*
X6752828Y17916046D01*
X6752828Y17694151D01*
X6695398Y17479817D01*
X6584451Y17287651D01*
X6427548Y17130748D01*
X6235382Y17019800D01*
X6021048Y16962369D01*
X5799154Y16962369D01*
X5584820Y17019799D01*
X5392653Y17130747D01*
X5235750Y17287650D01*
X5124803Y17479816D01*
X5067372Y17694149D01*
X5067372Y17916044D01*
X5124802Y18130378D01*
X5235749Y18322544D01*
X5392652Y18479447D01*
X5584818Y18590395D01*
X5799152Y18647825D01*
X6021046Y18647826D01*
X6235380Y18590395D01*
G37*
G36*
X-24244620Y18590364D02*
G01*
X-24052453Y18479417D01*
X-23895550Y18322514D01*
X-23784603Y18130348D01*
X-23727172Y17916014D01*
X-23727172Y17694120D01*
X-23784602Y17479786D01*
X-23895549Y17287620D01*
X-24052452Y17130717D01*
X-24244618Y17019769D01*
X-24458952Y16962338D01*
X-24680846Y16962338D01*
X-24895180Y17019768D01*
X-25087347Y17130715D01*
X-25244250Y17287618D01*
X-25355197Y17479785D01*
X-25412628Y17694118D01*
X-25412628Y17916013D01*
X-25355198Y18130346D01*
X-25244251Y18322513D01*
X-25087348Y18479416D01*
X-24895182Y18590364D01*
X-24680848Y18647794D01*
X-24458954Y18647795D01*
X-24244620Y18590364D01*
G37*
G36*
X-3924620Y18590385D02*
G01*
X-3732453Y18479438D01*
X-3575550Y18322535D01*
X-3464603Y18130369D01*
X-3407172Y17916035D01*
X-3407172Y17694141D01*
X-3464602Y17479807D01*
X-3575549Y17287641D01*
X-3732452Y17130737D01*
X-3924618Y17019790D01*
X-4138952Y16962359D01*
X-4360846Y16962359D01*
X-4575180Y17019789D01*
X-4767347Y17130736D01*
X-4924250Y17287639D01*
X-5035197Y17479805D01*
X-5092628Y17694139D01*
X-5092628Y17916033D01*
X-5035198Y18130367D01*
X-4924251Y18322534D01*
X-4767348Y18479437D01*
X-4575182Y18590384D01*
X-4360848Y18647815D01*
X-4138954Y18647815D01*
X-3924620Y18590385D01*
G37*
G36*
X-21704620Y18590367D02*
G01*
X-21512453Y18479420D01*
X-21355550Y18322517D01*
X-21244603Y18130351D01*
X-21187172Y17916017D01*
X-21187172Y17694123D01*
X-21244602Y17479789D01*
X-21355549Y17287622D01*
X-21512452Y17130719D01*
X-21704618Y17019772D01*
X-21918952Y16962341D01*
X-22140846Y16962341D01*
X-22355180Y17019771D01*
X-22547347Y17130718D01*
X-22704250Y17287621D01*
X-22815197Y17479787D01*
X-22872628Y17694121D01*
X-22872628Y17916015D01*
X-22815198Y18130349D01*
X-22704251Y18322515D01*
X-22547348Y18479419D01*
X-22355182Y18590366D01*
X-22140848Y18647797D01*
X-21918954Y18647797D01*
X-21704620Y18590367D01*
G37*
G36*
X9300101Y16955101D02*
G01*
X7600101Y16955099D01*
X7600099Y18655099D01*
X9300099Y18655101D01*
X9300101Y16955101D01*
G37*
G36*
X-29324620Y18590359D02*
G01*
X-29132453Y18479412D01*
X-28975550Y18322509D01*
X-28864603Y18130343D01*
X-28807172Y17916009D01*
X-28807172Y17694115D01*
X-28864602Y17479781D01*
X-28975549Y17287615D01*
X-29132452Y17130711D01*
X-29324618Y17019764D01*
X-29538952Y16962333D01*
X-29760846Y16962333D01*
X-29975180Y17019763D01*
X-30167347Y17130710D01*
X-30324250Y17287613D01*
X-30435197Y17479779D01*
X-30492628Y17694113D01*
X-30492628Y17916008D01*
X-30435198Y18130341D01*
X-30324251Y18322508D01*
X-30167348Y18479411D01*
X-29975182Y18590358D01*
X-29760848Y18647789D01*
X-29538954Y18647789D01*
X-29324620Y18590359D01*
G37*
G36*
X-9004620Y18590380D02*
G01*
X-8812453Y18479433D01*
X-8655550Y18322530D01*
X-8544603Y18130364D01*
X-8487172Y17916030D01*
X-8487172Y17694135D01*
X-8544602Y17479802D01*
X-8655549Y17287635D01*
X-8812452Y17130732D01*
X-9004618Y17019785D01*
X-9218952Y16962354D01*
X-9440846Y16962354D01*
X-9655180Y17019784D01*
X-9847347Y17130731D01*
X-10004250Y17287634D01*
X-10115197Y17479800D01*
X-10172628Y17694134D01*
X-10172628Y17916028D01*
X-10115198Y18130362D01*
X-10004251Y18322528D01*
X-9847348Y18479432D01*
X-9655182Y18590379D01*
X-9440848Y18647810D01*
X-9218954Y18647810D01*
X-9004620Y18590380D01*
G37*
G36*
X-11544620Y18590377D02*
G01*
X-11352453Y18479430D01*
X-11195550Y18322527D01*
X-11084603Y18130361D01*
X-11027172Y17916027D01*
X-11027172Y17694133D01*
X-11084602Y17479799D01*
X-11195549Y17287633D01*
X-11352452Y17130729D01*
X-11544618Y17019782D01*
X-11758952Y16962351D01*
X-11980846Y16962351D01*
X-12195180Y17019781D01*
X-12387347Y17130728D01*
X-12544250Y17287631D01*
X-12655197Y17479798D01*
X-12712628Y17694131D01*
X-12712628Y17916026D01*
X-12655198Y18130359D01*
X-12544251Y18322526D01*
X-12387348Y18479429D01*
X-12195182Y18590377D01*
X-11980848Y18647807D01*
X-11758954Y18647808D01*
X-11544620Y18590377D01*
G37*
G36*
X-16624620Y18590372D02*
G01*
X-16432453Y18479425D01*
X-16275550Y18322522D01*
X-16164603Y18130356D01*
X-16107172Y17916022D01*
X-16107172Y17694128D01*
X-16164602Y17479794D01*
X-16275549Y17287628D01*
X-16432452Y17130724D01*
X-16624618Y17019777D01*
X-16838952Y16962346D01*
X-17060846Y16962346D01*
X-17275180Y17019776D01*
X-17467347Y17130723D01*
X-17624250Y17287626D01*
X-17735197Y17479792D01*
X-17792628Y17694126D01*
X-17792628Y17916021D01*
X-17735198Y18130354D01*
X-17624251Y18322521D01*
X-17467348Y18479424D01*
X-17275182Y18590371D01*
X-17060848Y18647802D01*
X-16838954Y18647802D01*
X-16624620Y18590372D01*
G37*
G36*
X-6464620Y18590382D02*
G01*
X-6272453Y18479435D01*
X-6115550Y18322532D01*
X-6004603Y18130366D01*
X-5947172Y17916033D01*
X-5947172Y17694138D01*
X-6004602Y17479804D01*
X-6115549Y17287638D01*
X-6272452Y17130735D01*
X-6464618Y17019787D01*
X-6678952Y16962356D01*
X-6900846Y16962356D01*
X-7115180Y17019787D01*
X-7307347Y17130734D01*
X-7464250Y17287637D01*
X-7575197Y17479803D01*
X-7632628Y17694136D01*
X-7632628Y17916031D01*
X-7575198Y18130365D01*
X-7464251Y18322531D01*
X-7307348Y18479434D01*
X-7115182Y18590382D01*
X-6900848Y18647812D01*
X-6678954Y18647813D01*
X-6464620Y18590382D01*
G37*
G36*
X1155380Y18590390D02*
G01*
X1347547Y18479443D01*
X1504450Y18322540D01*
X1615397Y18130374D01*
X1672828Y17916040D01*
X1672828Y17694146D01*
X1615398Y17479812D01*
X1504451Y17287646D01*
X1347548Y17130742D01*
X1155382Y17019795D01*
X941048Y16962364D01*
X719154Y16962364D01*
X504820Y17019794D01*
X312653Y17130741D01*
X155750Y17287644D01*
X44803Y17479811D01*
X-12628Y17694144D01*
X-12628Y17916039D01*
X44802Y18130372D01*
X155749Y18322539D01*
X312652Y18479442D01*
X504818Y18590390D01*
X719152Y18647820D01*
X941046Y18647820D01*
X1155380Y18590390D01*
G37*
G36*
X-19164620Y13757869D02*
G01*
X-18972453Y13646922D01*
X-18815550Y13490019D01*
X-18704603Y13297853D01*
X-18647172Y13083520D01*
X-18647172Y12861625D01*
X-18704602Y12647291D01*
X-18815549Y12455125D01*
X-18972452Y12298222D01*
X-19164618Y12187274D01*
X-19378952Y12129843D01*
X-19600846Y12129843D01*
X-19815180Y12187274D01*
X-20007347Y12298221D01*
X-20164250Y12455124D01*
X-20275197Y12647290D01*
X-20332628Y12861623D01*
X-20332628Y13083518D01*
X-20275198Y13297852D01*
X-20164251Y13490018D01*
X-20007348Y13646921D01*
X-19815182Y13757869D01*
X-19600848Y13815300D01*
X-19378954Y13815300D01*
X-19164620Y13757869D01*
G37*
G36*
X-14084620Y13757875D02*
G01*
X-13892453Y13646928D01*
X-13735550Y13490025D01*
X-13624603Y13297858D01*
X-13567172Y13083525D01*
X-13567172Y12861630D01*
X-13624602Y12647297D01*
X-13735549Y12455130D01*
X-13892452Y12298227D01*
X-14084618Y12187279D01*
X-14298952Y12129849D01*
X-14520846Y12129848D01*
X-14735180Y12187279D01*
X-14927347Y12298226D01*
X-15084250Y12455129D01*
X-15195197Y12647295D01*
X-15252628Y12861629D01*
X-15252628Y13083523D01*
X-15195198Y13297857D01*
X-15084251Y13490023D01*
X-14927348Y13646927D01*
X-14735182Y13757874D01*
X-14520848Y13815305D01*
X-14298954Y13815305D01*
X-14084620Y13757875D01*
G37*
G36*
X3695380Y13757893D02*
G01*
X3887547Y13646946D01*
X4044450Y13490043D01*
X4155397Y13297877D01*
X4212828Y13083543D01*
X4212828Y12861648D01*
X4155398Y12647315D01*
X4044451Y12455148D01*
X3887548Y12298245D01*
X3695382Y12187298D01*
X3481048Y12129867D01*
X3259154Y12129867D01*
X3044820Y12187297D01*
X2852653Y12298244D01*
X2695750Y12455147D01*
X2584803Y12647313D01*
X2527372Y12861647D01*
X2527372Y13083541D01*
X2584802Y13297875D01*
X2695749Y13490041D01*
X2852652Y13646945D01*
X3044818Y13757892D01*
X3259152Y13815323D01*
X3481046Y13815323D01*
X3695380Y13757893D01*
G37*
G36*
X-26784620Y13757862D02*
G01*
X-26592453Y13646915D01*
X-26435550Y13490012D01*
X-26324603Y13297845D01*
X-26267172Y13083512D01*
X-26267172Y12861617D01*
X-26324602Y12647284D01*
X-26435549Y12455117D01*
X-26592452Y12298214D01*
X-26784618Y12187266D01*
X-26998952Y12129836D01*
X-27220846Y12129835D01*
X-27435180Y12187266D01*
X-27627347Y12298213D01*
X-27784250Y12455116D01*
X-27895197Y12647282D01*
X-27952628Y12861616D01*
X-27952628Y13083510D01*
X-27895198Y13297844D01*
X-27784251Y13490010D01*
X-27627348Y13646914D01*
X-27435182Y13757861D01*
X-27220848Y13815292D01*
X-26998954Y13815292D01*
X-26784620Y13757862D01*
G37*
G36*
X-1384620Y13757888D02*
G01*
X-1192453Y13646941D01*
X-1035550Y13490038D01*
X-924603Y13297871D01*
X-867172Y13083538D01*
X-867172Y12861643D01*
X-924602Y12647310D01*
X-1035549Y12455143D01*
X-1192452Y12298240D01*
X-1384618Y12187292D01*
X-1598952Y12129862D01*
X-1820846Y12129861D01*
X-2035180Y12187292D01*
X-2227347Y12298239D01*
X-2384250Y12455142D01*
X-2495197Y12647308D01*
X-2552628Y12861642D01*
X-2552628Y13083536D01*
X-2495198Y13297870D01*
X-2384251Y13490036D01*
X-2227348Y13646939D01*
X-2035182Y13757887D01*
X-1820848Y13815318D01*
X-1598954Y13815318D01*
X-1384620Y13757888D01*
G37*
G36*
X6235380Y13757895D02*
G01*
X6427547Y13646948D01*
X6584450Y13490045D01*
X6695397Y13297879D01*
X6752828Y13083546D01*
X6752828Y12861651D01*
X6695398Y12647317D01*
X6584451Y12455151D01*
X6427548Y12298248D01*
X6235382Y12187300D01*
X6021048Y12129869D01*
X5799154Y12129869D01*
X5584820Y12187299D01*
X5392653Y12298247D01*
X5235750Y12455150D01*
X5124803Y12647316D01*
X5067372Y12861649D01*
X5067372Y13083544D01*
X5124802Y13297878D01*
X5235749Y13490044D01*
X5392652Y13646947D01*
X5584818Y13757895D01*
X5799152Y13815325D01*
X6021046Y13815326D01*
X6235380Y13757895D01*
G37*
G36*
X-24244620Y13757864D02*
G01*
X-24052453Y13646917D01*
X-23895550Y13490014D01*
X-23784603Y13297848D01*
X-23727172Y13083514D01*
X-23727172Y12861620D01*
X-23784602Y12647286D01*
X-23895549Y12455120D01*
X-24052452Y12298217D01*
X-24244618Y12187269D01*
X-24458952Y12129838D01*
X-24680846Y12129838D01*
X-24895180Y12187268D01*
X-25087347Y12298215D01*
X-25244250Y12455118D01*
X-25355197Y12647285D01*
X-25412628Y12861618D01*
X-25412628Y13083513D01*
X-25355198Y13297846D01*
X-25244251Y13490013D01*
X-25087348Y13646916D01*
X-24895182Y13757864D01*
X-24680848Y13815294D01*
X-24458954Y13815295D01*
X-24244620Y13757864D01*
G37*
G36*
X-3924620Y13757885D02*
G01*
X-3732453Y13646938D01*
X-3575550Y13490035D01*
X-3464603Y13297869D01*
X-3407172Y13083535D01*
X-3407172Y12861641D01*
X-3464602Y12647307D01*
X-3575549Y12455141D01*
X-3732452Y12298237D01*
X-3924618Y12187290D01*
X-4138952Y12129859D01*
X-4360846Y12129859D01*
X-4575180Y12187289D01*
X-4767347Y12298236D01*
X-4924250Y12455139D01*
X-5035197Y12647305D01*
X-5092628Y12861639D01*
X-5092628Y13083533D01*
X-5035198Y13297867D01*
X-4924251Y13490034D01*
X-4767348Y13646937D01*
X-4575182Y13757884D01*
X-4360848Y13815315D01*
X-4138954Y13815315D01*
X-3924620Y13757885D01*
G37*
G36*
X-21704620Y13757867D02*
G01*
X-21512453Y13646920D01*
X-21355550Y13490017D01*
X-21244603Y13297851D01*
X-21187172Y13083517D01*
X-21187172Y12861623D01*
X-21244602Y12647289D01*
X-21355549Y12455122D01*
X-21512452Y12298219D01*
X-21704618Y12187272D01*
X-21918952Y12129841D01*
X-22140846Y12129841D01*
X-22355180Y12187271D01*
X-22547347Y12298218D01*
X-22704250Y12455121D01*
X-22815197Y12647287D01*
X-22872628Y12861621D01*
X-22872628Y13083515D01*
X-22815198Y13297849D01*
X-22704251Y13490015D01*
X-22547348Y13646919D01*
X-22355182Y13757866D01*
X-22140848Y13815297D01*
X-21918954Y13815297D01*
X-21704620Y13757867D01*
G37*
G36*
X9300101Y12122601D02*
G01*
X7600101Y12122599D01*
X7600099Y13822599D01*
X9300099Y13822601D01*
X9300101Y12122601D01*
G37*
G36*
X-29324620Y13757859D02*
G01*
X-29132453Y13646912D01*
X-28975550Y13490009D01*
X-28864603Y13297843D01*
X-28807172Y13083509D01*
X-28807172Y12861615D01*
X-28864602Y12647281D01*
X-28975549Y12455115D01*
X-29132452Y12298211D01*
X-29324618Y12187264D01*
X-29538952Y12129833D01*
X-29760846Y12129833D01*
X-29975180Y12187263D01*
X-30167347Y12298210D01*
X-30324250Y12455113D01*
X-30435197Y12647279D01*
X-30492628Y12861613D01*
X-30492628Y13083508D01*
X-30435198Y13297841D01*
X-30324251Y13490008D01*
X-30167348Y13646911D01*
X-29975182Y13757858D01*
X-29760848Y13815289D01*
X-29538954Y13815289D01*
X-29324620Y13757859D01*
G37*
G36*
X-9004620Y13757880D02*
G01*
X-8812453Y13646933D01*
X-8655550Y13490030D01*
X-8544603Y13297864D01*
X-8487172Y13083530D01*
X-8487172Y12861635D01*
X-8544602Y12647302D01*
X-8655549Y12455135D01*
X-8812452Y12298232D01*
X-9004618Y12187285D01*
X-9218952Y12129854D01*
X-9440846Y12129854D01*
X-9655180Y12187284D01*
X-9847347Y12298231D01*
X-10004250Y12455134D01*
X-10115197Y12647300D01*
X-10172628Y12861634D01*
X-10172628Y13083528D01*
X-10115198Y13297862D01*
X-10004251Y13490028D01*
X-9847348Y13646932D01*
X-9655182Y13757879D01*
X-9440848Y13815310D01*
X-9218954Y13815310D01*
X-9004620Y13757880D01*
G37*
G36*
X-11544620Y13757877D02*
G01*
X-11352453Y13646930D01*
X-11195550Y13490027D01*
X-11084603Y13297861D01*
X-11027172Y13083527D01*
X-11027172Y12861633D01*
X-11084602Y12647299D01*
X-11195549Y12455133D01*
X-11352452Y12298229D01*
X-11544618Y12187282D01*
X-11758952Y12129851D01*
X-11980846Y12129851D01*
X-12195180Y12187281D01*
X-12387347Y12298228D01*
X-12544250Y12455131D01*
X-12655197Y12647298D01*
X-12712628Y12861631D01*
X-12712628Y13083526D01*
X-12655198Y13297859D01*
X-12544251Y13490026D01*
X-12387348Y13646929D01*
X-12195182Y13757877D01*
X-11980848Y13815307D01*
X-11758954Y13815308D01*
X-11544620Y13757877D01*
G37*
G36*
X-16624620Y13757872D02*
G01*
X-16432453Y13646925D01*
X-16275550Y13490022D01*
X-16164603Y13297856D01*
X-16107172Y13083522D01*
X-16107172Y12861628D01*
X-16164602Y12647294D01*
X-16275549Y12455128D01*
X-16432452Y12298224D01*
X-16624618Y12187277D01*
X-16838952Y12129846D01*
X-17060846Y12129846D01*
X-17275180Y12187276D01*
X-17467347Y12298223D01*
X-17624250Y12455126D01*
X-17735197Y12647292D01*
X-17792628Y12861626D01*
X-17792628Y13083521D01*
X-17735198Y13297854D01*
X-17624251Y13490021D01*
X-17467348Y13646924D01*
X-17275182Y13757871D01*
X-17060848Y13815302D01*
X-16838954Y13815302D01*
X-16624620Y13757872D01*
G37*
G36*
X-6464620Y13757882D02*
G01*
X-6272453Y13646935D01*
X-6115550Y13490032D01*
X-6004603Y13297866D01*
X-5947172Y13083533D01*
X-5947172Y12861638D01*
X-6004602Y12647304D01*
X-6115549Y12455138D01*
X-6272452Y12298235D01*
X-6464618Y12187287D01*
X-6678952Y12129856D01*
X-6900846Y12129856D01*
X-7115180Y12187287D01*
X-7307347Y12298234D01*
X-7464250Y12455137D01*
X-7575197Y12647303D01*
X-7632628Y12861636D01*
X-7632628Y13083531D01*
X-7575198Y13297865D01*
X-7464251Y13490031D01*
X-7307348Y13646934D01*
X-7115182Y13757882D01*
X-6900848Y13815312D01*
X-6678954Y13815313D01*
X-6464620Y13757882D01*
G37*
G36*
X1155380Y13757890D02*
G01*
X1347547Y13646943D01*
X1504450Y13490040D01*
X1615397Y13297874D01*
X1672828Y13083540D01*
X1672828Y12861646D01*
X1615398Y12647312D01*
X1504451Y12455146D01*
X1347548Y12298242D01*
X1155382Y12187295D01*
X941048Y12129864D01*
X719154Y12129864D01*
X504820Y12187294D01*
X312653Y12298241D01*
X155750Y12455144D01*
X44803Y12647311D01*
X-12628Y12861644D01*
X-12628Y13083539D01*
X44802Y13297872D01*
X155749Y13490039D01*
X312652Y13646942D01*
X504818Y13757890D01*
X719152Y13815320D01*
X941046Y13815320D01*
X1155380Y13757890D01*
G37*
G36*
X-19164620Y-16633431D02*
G01*
X-18972453Y-16744378D01*
X-18815550Y-16901281D01*
X-18704603Y-17093447D01*
X-18647172Y-17307780D01*
X-18647172Y-17529675D01*
X-18704602Y-17744009D01*
X-18815549Y-17936175D01*
X-18972452Y-18093078D01*
X-19164618Y-18204026D01*
X-19378952Y-18261457D01*
X-19600846Y-18261457D01*
X-19815180Y-18204026D01*
X-20007347Y-18093079D01*
X-20164250Y-17936176D01*
X-20275197Y-17744010D01*
X-20332628Y-17529677D01*
X-20332628Y-17307782D01*
X-20275198Y-17093448D01*
X-20164251Y-16901282D01*
X-20007348Y-16744379D01*
X-19815182Y-16633431D01*
X-19600848Y-16576000D01*
X-19378954Y-16576000D01*
X-19164620Y-16633431D01*
G37*
G36*
X-14084620Y-16633425D02*
G01*
X-13892453Y-16744372D01*
X-13735550Y-16901275D01*
X-13624603Y-17093442D01*
X-13567172Y-17307775D01*
X-13567172Y-17529670D01*
X-13624602Y-17744003D01*
X-13735549Y-17936170D01*
X-13892452Y-18093073D01*
X-14084618Y-18204021D01*
X-14298952Y-18261451D01*
X-14520846Y-18261452D01*
X-14735180Y-18204021D01*
X-14927347Y-18093074D01*
X-15084250Y-17936171D01*
X-15195197Y-17744005D01*
X-15252628Y-17529671D01*
X-15252628Y-17307777D01*
X-15195198Y-17093443D01*
X-15084251Y-16901277D01*
X-14927348Y-16744373D01*
X-14735182Y-16633426D01*
X-14520848Y-16575995D01*
X-14298954Y-16575995D01*
X-14084620Y-16633425D01*
G37*
G36*
X3695380Y-16633407D02*
G01*
X3887547Y-16744354D01*
X4044450Y-16901257D01*
X4155397Y-17093423D01*
X4212828Y-17307757D01*
X4212828Y-17529652D01*
X4155398Y-17743985D01*
X4044451Y-17936152D01*
X3887548Y-18093055D01*
X3695382Y-18204002D01*
X3481048Y-18261433D01*
X3259154Y-18261433D01*
X3044820Y-18204003D01*
X2852653Y-18093056D01*
X2695750Y-17936153D01*
X2584803Y-17743987D01*
X2527372Y-17529653D01*
X2527372Y-17307759D01*
X2584802Y-17093425D01*
X2695749Y-16901259D01*
X2852652Y-16744355D01*
X3044818Y-16633408D01*
X3259152Y-16575977D01*
X3481046Y-16575977D01*
X3695380Y-16633407D01*
G37*
G36*
X-26784620Y-16633438D02*
G01*
X-26592453Y-16744385D01*
X-26435550Y-16901288D01*
X-26324603Y-17093455D01*
X-26267172Y-17307788D01*
X-26267172Y-17529683D01*
X-26324602Y-17744016D01*
X-26435549Y-17936183D01*
X-26592452Y-18093086D01*
X-26784618Y-18204034D01*
X-26998952Y-18261464D01*
X-27220846Y-18261465D01*
X-27435180Y-18204034D01*
X-27627347Y-18093087D01*
X-27784250Y-17936184D01*
X-27895197Y-17744018D01*
X-27952628Y-17529684D01*
X-27952628Y-17307790D01*
X-27895198Y-17093456D01*
X-27784251Y-16901290D01*
X-27627348Y-16744386D01*
X-27435182Y-16633439D01*
X-27220848Y-16576008D01*
X-26998954Y-16576008D01*
X-26784620Y-16633438D01*
G37*
G36*
X-1384620Y-16633412D02*
G01*
X-1192453Y-16744359D01*
X-1035550Y-16901262D01*
X-924603Y-17093429D01*
X-867172Y-17307762D01*
X-867172Y-17529657D01*
X-924602Y-17743990D01*
X-1035549Y-17936157D01*
X-1192452Y-18093060D01*
X-1384618Y-18204008D01*
X-1598952Y-18261438D01*
X-1820846Y-18261439D01*
X-2035180Y-18204008D01*
X-2227347Y-18093061D01*
X-2384250Y-17936158D01*
X-2495197Y-17743992D01*
X-2552628Y-17529658D01*
X-2552628Y-17307764D01*
X-2495198Y-17093430D01*
X-2384251Y-16901264D01*
X-2227348Y-16744361D01*
X-2035182Y-16633413D01*
X-1820848Y-16575982D01*
X-1598954Y-16575982D01*
X-1384620Y-16633412D01*
G37*
G36*
X6235380Y-16633405D02*
G01*
X6427547Y-16744352D01*
X6584450Y-16901255D01*
X6695397Y-17093421D01*
X6752828Y-17307754D01*
X6752828Y-17529649D01*
X6695398Y-17743983D01*
X6584451Y-17936149D01*
X6427548Y-18093052D01*
X6235382Y-18204000D01*
X6021048Y-18261431D01*
X5799154Y-18261431D01*
X5584820Y-18204001D01*
X5392653Y-18093053D01*
X5235750Y-17936150D01*
X5124803Y-17743984D01*
X5067372Y-17529651D01*
X5067372Y-17307756D01*
X5124802Y-17093422D01*
X5235749Y-16901256D01*
X5392652Y-16744353D01*
X5584818Y-16633405D01*
X5799152Y-16575975D01*
X6021046Y-16575974D01*
X6235380Y-16633405D01*
G37*
G36*
X-24244620Y-16633436D02*
G01*
X-24052453Y-16744383D01*
X-23895550Y-16901286D01*
X-23784603Y-17093452D01*
X-23727172Y-17307786D01*
X-23727172Y-17529680D01*
X-23784602Y-17744014D01*
X-23895549Y-17936180D01*
X-24052452Y-18093083D01*
X-24244618Y-18204031D01*
X-24458952Y-18261462D01*
X-24680846Y-18261462D01*
X-24895180Y-18204032D01*
X-25087347Y-18093085D01*
X-25244250Y-17936182D01*
X-25355197Y-17744015D01*
X-25412628Y-17529682D01*
X-25412628Y-17307787D01*
X-25355198Y-17093454D01*
X-25244251Y-16901287D01*
X-25087348Y-16744384D01*
X-24895182Y-16633436D01*
X-24680848Y-16576006D01*
X-24458954Y-16576005D01*
X-24244620Y-16633436D01*
G37*
G36*
X-3924620Y-16633415D02*
G01*
X-3732453Y-16744362D01*
X-3575550Y-16901265D01*
X-3464603Y-17093431D01*
X-3407172Y-17307765D01*
X-3407172Y-17529659D01*
X-3464602Y-17743993D01*
X-3575549Y-17936159D01*
X-3732452Y-18093063D01*
X-3924618Y-18204010D01*
X-4138952Y-18261441D01*
X-4360846Y-18261441D01*
X-4575180Y-18204011D01*
X-4767347Y-18093064D01*
X-4924250Y-17936161D01*
X-5035197Y-17743995D01*
X-5092628Y-17529661D01*
X-5092628Y-17307767D01*
X-5035198Y-17093433D01*
X-4924251Y-16901266D01*
X-4767348Y-16744363D01*
X-4575182Y-16633416D01*
X-4360848Y-16575985D01*
X-4138954Y-16575985D01*
X-3924620Y-16633415D01*
G37*
G36*
X-21704620Y-16633433D02*
G01*
X-21512453Y-16744380D01*
X-21355550Y-16901283D01*
X-21244603Y-17093449D01*
X-21187172Y-17307783D01*
X-21187172Y-17529677D01*
X-21244602Y-17744011D01*
X-21355549Y-17936178D01*
X-21512452Y-18093081D01*
X-21704618Y-18204028D01*
X-21918952Y-18261459D01*
X-22140846Y-18261459D01*
X-22355180Y-18204029D01*
X-22547347Y-18093082D01*
X-22704250Y-17936179D01*
X-22815197Y-17744013D01*
X-22872628Y-17529679D01*
X-22872628Y-17307785D01*
X-22815198Y-17093451D01*
X-22704251Y-16901285D01*
X-22547348Y-16744381D01*
X-22355182Y-16633434D01*
X-22140848Y-16576003D01*
X-21918954Y-16576003D01*
X-21704620Y-16633433D01*
G37*
G36*
X9300101Y-18268699D02*
G01*
X7600101Y-18268701D01*
X7600099Y-16568701D01*
X9300099Y-16568699D01*
X9300101Y-18268699D01*
G37*
G36*
X-29324620Y-16633441D02*
G01*
X-29132453Y-16744388D01*
X-28975550Y-16901291D01*
X-28864603Y-17093457D01*
X-28807172Y-17307791D01*
X-28807172Y-17529685D01*
X-28864602Y-17744019D01*
X-28975549Y-17936185D01*
X-29132452Y-18093089D01*
X-29324618Y-18204036D01*
X-29538952Y-18261467D01*
X-29760846Y-18261467D01*
X-29975180Y-18204037D01*
X-30167347Y-18093090D01*
X-30324250Y-17936187D01*
X-30435197Y-17744021D01*
X-30492628Y-17529687D01*
X-30492628Y-17307792D01*
X-30435198Y-17093459D01*
X-30324251Y-16901292D01*
X-30167348Y-16744389D01*
X-29975182Y-16633442D01*
X-29760848Y-16576011D01*
X-29538954Y-16576011D01*
X-29324620Y-16633441D01*
G37*
G36*
X-9004620Y-16633420D02*
G01*
X-8812453Y-16744367D01*
X-8655550Y-16901270D01*
X-8544603Y-17093436D01*
X-8487172Y-17307770D01*
X-8487172Y-17529665D01*
X-8544602Y-17743998D01*
X-8655549Y-17936165D01*
X-8812452Y-18093068D01*
X-9004618Y-18204015D01*
X-9218952Y-18261446D01*
X-9440846Y-18261446D01*
X-9655180Y-18204016D01*
X-9847347Y-18093069D01*
X-10004250Y-17936166D01*
X-10115197Y-17744000D01*
X-10172628Y-17529666D01*
X-10172628Y-17307772D01*
X-10115198Y-17093438D01*
X-10004251Y-16901272D01*
X-9847348Y-16744368D01*
X-9655182Y-16633421D01*
X-9440848Y-16575990D01*
X-9218954Y-16575990D01*
X-9004620Y-16633420D01*
G37*
G36*
X-11544620Y-16633423D02*
G01*
X-11352453Y-16744370D01*
X-11195550Y-16901273D01*
X-11084603Y-17093439D01*
X-11027172Y-17307773D01*
X-11027172Y-17529667D01*
X-11084602Y-17744001D01*
X-11195549Y-17936167D01*
X-11352452Y-18093071D01*
X-11544618Y-18204018D01*
X-11758952Y-18261449D01*
X-11980846Y-18261449D01*
X-12195180Y-18204019D01*
X-12387347Y-18093072D01*
X-12544250Y-17936169D01*
X-12655197Y-17744002D01*
X-12712628Y-17529669D01*
X-12712628Y-17307774D01*
X-12655198Y-17093441D01*
X-12544251Y-16901274D01*
X-12387348Y-16744371D01*
X-12195182Y-16633423D01*
X-11980848Y-16575993D01*
X-11758954Y-16575992D01*
X-11544620Y-16633423D01*
G37*
G36*
X-16624620Y-16633428D02*
G01*
X-16432453Y-16744375D01*
X-16275550Y-16901278D01*
X-16164603Y-17093444D01*
X-16107172Y-17307778D01*
X-16107172Y-17529672D01*
X-16164602Y-17744006D01*
X-16275549Y-17936172D01*
X-16432452Y-18093076D01*
X-16624618Y-18204023D01*
X-16838952Y-18261454D01*
X-17060846Y-18261454D01*
X-17275180Y-18204024D01*
X-17467347Y-18093077D01*
X-17624250Y-17936174D01*
X-17735197Y-17744008D01*
X-17792628Y-17529674D01*
X-17792628Y-17307779D01*
X-17735198Y-17093446D01*
X-17624251Y-16901279D01*
X-17467348Y-16744376D01*
X-17275182Y-16633429D01*
X-17060848Y-16575998D01*
X-16838954Y-16575998D01*
X-16624620Y-16633428D01*
G37*
G36*
X-6464620Y-16633418D02*
G01*
X-6272453Y-16744365D01*
X-6115550Y-16901268D01*
X-6004603Y-17093434D01*
X-5947172Y-17307767D01*
X-5947172Y-17529662D01*
X-6004602Y-17743996D01*
X-6115549Y-17936162D01*
X-6272452Y-18093065D01*
X-6464618Y-18204013D01*
X-6678952Y-18261444D01*
X-6900846Y-18261444D01*
X-7115180Y-18204013D01*
X-7307347Y-18093066D01*
X-7464250Y-17936163D01*
X-7575197Y-17743997D01*
X-7632628Y-17529664D01*
X-7632628Y-17307769D01*
X-7575198Y-17093435D01*
X-7464251Y-16901269D01*
X-7307348Y-16744366D01*
X-7115182Y-16633418D01*
X-6900848Y-16575988D01*
X-6678954Y-16575987D01*
X-6464620Y-16633418D01*
G37*
G36*
X1155380Y-16633410D02*
G01*
X1347547Y-16744357D01*
X1504450Y-16901260D01*
X1615397Y-17093426D01*
X1672828Y-17307760D01*
X1672828Y-17529654D01*
X1615398Y-17743988D01*
X1504451Y-17936154D01*
X1347548Y-18093058D01*
X1155382Y-18204005D01*
X941048Y-18261436D01*
X719154Y-18261436D01*
X504820Y-18204006D01*
X312653Y-18093059D01*
X155750Y-17936156D01*
X44803Y-17743989D01*
X-12628Y-17529656D01*
X-12628Y-17307761D01*
X44802Y-17093428D01*
X155749Y-16901261D01*
X312652Y-16744358D01*
X504818Y-16633410D01*
X719152Y-16575980D01*
X941046Y-16575980D01*
X1155380Y-16633410D01*
G37*
G36*
X-19164620Y-11766331D02*
G01*
X-18972453Y-11877278D01*
X-18815550Y-12034181D01*
X-18704603Y-12226347D01*
X-18647172Y-12440680D01*
X-18647172Y-12662575D01*
X-18704602Y-12876909D01*
X-18815549Y-13069075D01*
X-18972452Y-13225978D01*
X-19164618Y-13336926D01*
X-19378952Y-13394357D01*
X-19600846Y-13394357D01*
X-19815180Y-13336926D01*
X-20007347Y-13225979D01*
X-20164250Y-13069076D01*
X-20275197Y-12876910D01*
X-20332628Y-12662577D01*
X-20332628Y-12440682D01*
X-20275198Y-12226348D01*
X-20164251Y-12034182D01*
X-20007348Y-11877279D01*
X-19815182Y-11766331D01*
X-19600848Y-11708900D01*
X-19378954Y-11708900D01*
X-19164620Y-11766331D01*
G37*
G36*
X-14084620Y-11766325D02*
G01*
X-13892453Y-11877272D01*
X-13735550Y-12034175D01*
X-13624603Y-12226342D01*
X-13567172Y-12440675D01*
X-13567172Y-12662570D01*
X-13624602Y-12876903D01*
X-13735549Y-13069070D01*
X-13892452Y-13225973D01*
X-14084618Y-13336921D01*
X-14298952Y-13394351D01*
X-14520846Y-13394352D01*
X-14735180Y-13336921D01*
X-14927347Y-13225974D01*
X-15084250Y-13069071D01*
X-15195197Y-12876905D01*
X-15252628Y-12662571D01*
X-15252628Y-12440677D01*
X-15195198Y-12226343D01*
X-15084251Y-12034177D01*
X-14927348Y-11877273D01*
X-14735182Y-11766326D01*
X-14520848Y-11708895D01*
X-14298954Y-11708895D01*
X-14084620Y-11766325D01*
G37*
G36*
X3695380Y-11766307D02*
G01*
X3887547Y-11877254D01*
X4044450Y-12034157D01*
X4155397Y-12226323D01*
X4212828Y-12440657D01*
X4212828Y-12662552D01*
X4155398Y-12876885D01*
X4044451Y-13069052D01*
X3887548Y-13225955D01*
X3695382Y-13336902D01*
X3481048Y-13394333D01*
X3259154Y-13394333D01*
X3044820Y-13336903D01*
X2852653Y-13225956D01*
X2695750Y-13069053D01*
X2584803Y-12876887D01*
X2527372Y-12662553D01*
X2527372Y-12440659D01*
X2584802Y-12226325D01*
X2695749Y-12034159D01*
X2852652Y-11877255D01*
X3044818Y-11766308D01*
X3259152Y-11708877D01*
X3481046Y-11708877D01*
X3695380Y-11766307D01*
G37*
G36*
X-26784620Y-11766338D02*
G01*
X-26592453Y-11877285D01*
X-26435550Y-12034188D01*
X-26324603Y-12226355D01*
X-26267172Y-12440688D01*
X-26267172Y-12662583D01*
X-26324602Y-12876916D01*
X-26435549Y-13069083D01*
X-26592452Y-13225986D01*
X-26784618Y-13336934D01*
X-26998952Y-13394364D01*
X-27220846Y-13394365D01*
X-27435180Y-13336934D01*
X-27627347Y-13225987D01*
X-27784250Y-13069084D01*
X-27895197Y-12876918D01*
X-27952628Y-12662584D01*
X-27952628Y-12440690D01*
X-27895198Y-12226356D01*
X-27784251Y-12034190D01*
X-27627348Y-11877286D01*
X-27435182Y-11766339D01*
X-27220848Y-11708908D01*
X-26998954Y-11708908D01*
X-26784620Y-11766338D01*
G37*
G36*
X-1384620Y-11766312D02*
G01*
X-1192453Y-11877259D01*
X-1035550Y-12034162D01*
X-924603Y-12226329D01*
X-867172Y-12440662D01*
X-867172Y-12662557D01*
X-924602Y-12876890D01*
X-1035549Y-13069057D01*
X-1192452Y-13225960D01*
X-1384618Y-13336908D01*
X-1598952Y-13394338D01*
X-1820846Y-13394339D01*
X-2035180Y-13336908D01*
X-2227347Y-13225961D01*
X-2384250Y-13069058D01*
X-2495197Y-12876892D01*
X-2552628Y-12662558D01*
X-2552628Y-12440664D01*
X-2495198Y-12226330D01*
X-2384251Y-12034164D01*
X-2227348Y-11877261D01*
X-2035182Y-11766313D01*
X-1820848Y-11708882D01*
X-1598954Y-11708882D01*
X-1384620Y-11766312D01*
G37*
G36*
X6235380Y-11766305D02*
G01*
X6427547Y-11877252D01*
X6584450Y-12034155D01*
X6695397Y-12226321D01*
X6752828Y-12440654D01*
X6752828Y-12662549D01*
X6695398Y-12876883D01*
X6584451Y-13069049D01*
X6427548Y-13225952D01*
X6235382Y-13336900D01*
X6021048Y-13394331D01*
X5799154Y-13394331D01*
X5584820Y-13336901D01*
X5392653Y-13225953D01*
X5235750Y-13069050D01*
X5124803Y-12876884D01*
X5067372Y-12662551D01*
X5067372Y-12440656D01*
X5124802Y-12226322D01*
X5235749Y-12034156D01*
X5392652Y-11877253D01*
X5584818Y-11766305D01*
X5799152Y-11708875D01*
X6021046Y-11708874D01*
X6235380Y-11766305D01*
G37*
G36*
X-24244620Y-11766336D02*
G01*
X-24052453Y-11877283D01*
X-23895550Y-12034186D01*
X-23784603Y-12226352D01*
X-23727172Y-12440686D01*
X-23727172Y-12662580D01*
X-23784602Y-12876914D01*
X-23895549Y-13069080D01*
X-24052452Y-13225983D01*
X-24244618Y-13336931D01*
X-24458952Y-13394362D01*
X-24680846Y-13394362D01*
X-24895180Y-13336932D01*
X-25087347Y-13225985D01*
X-25244250Y-13069082D01*
X-25355197Y-12876915D01*
X-25412628Y-12662582D01*
X-25412628Y-12440687D01*
X-25355198Y-12226354D01*
X-25244251Y-12034187D01*
X-25087348Y-11877284D01*
X-24895182Y-11766336D01*
X-24680848Y-11708906D01*
X-24458954Y-11708905D01*
X-24244620Y-11766336D01*
G37*
G36*
X-3924620Y-11766315D02*
G01*
X-3732453Y-11877262D01*
X-3575550Y-12034165D01*
X-3464603Y-12226331D01*
X-3407172Y-12440665D01*
X-3407172Y-12662559D01*
X-3464602Y-12876893D01*
X-3575549Y-13069059D01*
X-3732452Y-13225963D01*
X-3924618Y-13336910D01*
X-4138952Y-13394341D01*
X-4360846Y-13394341D01*
X-4575180Y-13336911D01*
X-4767347Y-13225964D01*
X-4924250Y-13069061D01*
X-5035197Y-12876895D01*
X-5092628Y-12662561D01*
X-5092628Y-12440667D01*
X-5035198Y-12226333D01*
X-4924251Y-12034166D01*
X-4767348Y-11877263D01*
X-4575182Y-11766316D01*
X-4360848Y-11708885D01*
X-4138954Y-11708885D01*
X-3924620Y-11766315D01*
G37*
G36*
X-21704620Y-11766333D02*
G01*
X-21512453Y-11877280D01*
X-21355550Y-12034183D01*
X-21244603Y-12226349D01*
X-21187172Y-12440683D01*
X-21187172Y-12662577D01*
X-21244602Y-12876911D01*
X-21355549Y-13069078D01*
X-21512452Y-13225981D01*
X-21704618Y-13336928D01*
X-21918952Y-13394359D01*
X-22140846Y-13394359D01*
X-22355180Y-13336929D01*
X-22547347Y-13225982D01*
X-22704250Y-13069079D01*
X-22815197Y-12876913D01*
X-22872628Y-12662579D01*
X-22872628Y-12440685D01*
X-22815198Y-12226351D01*
X-22704251Y-12034185D01*
X-22547348Y-11877281D01*
X-22355182Y-11766334D01*
X-22140848Y-11708903D01*
X-21918954Y-11708903D01*
X-21704620Y-11766333D01*
G37*
G36*
X9300101Y-13401599D02*
G01*
X7600101Y-13401601D01*
X7600099Y-11701601D01*
X9300099Y-11701599D01*
X9300101Y-13401599D01*
G37*
G36*
X-29324620Y-11766341D02*
G01*
X-29132453Y-11877288D01*
X-28975550Y-12034191D01*
X-28864603Y-12226357D01*
X-28807172Y-12440691D01*
X-28807172Y-12662585D01*
X-28864602Y-12876919D01*
X-28975549Y-13069085D01*
X-29132452Y-13225989D01*
X-29324618Y-13336936D01*
X-29538952Y-13394367D01*
X-29760846Y-13394367D01*
X-29975180Y-13336937D01*
X-30167347Y-13225990D01*
X-30324250Y-13069087D01*
X-30435197Y-12876921D01*
X-30492628Y-12662587D01*
X-30492628Y-12440692D01*
X-30435198Y-12226359D01*
X-30324251Y-12034192D01*
X-30167348Y-11877289D01*
X-29975182Y-11766342D01*
X-29760848Y-11708911D01*
X-29538954Y-11708911D01*
X-29324620Y-11766341D01*
G37*
G36*
X-9004620Y-11766320D02*
G01*
X-8812453Y-11877267D01*
X-8655550Y-12034170D01*
X-8544603Y-12226336D01*
X-8487172Y-12440670D01*
X-8487172Y-12662565D01*
X-8544602Y-12876898D01*
X-8655549Y-13069065D01*
X-8812452Y-13225968D01*
X-9004618Y-13336915D01*
X-9218952Y-13394346D01*
X-9440846Y-13394346D01*
X-9655180Y-13336916D01*
X-9847347Y-13225969D01*
X-10004250Y-13069066D01*
X-10115197Y-12876900D01*
X-10172628Y-12662566D01*
X-10172628Y-12440672D01*
X-10115198Y-12226338D01*
X-10004251Y-12034172D01*
X-9847348Y-11877268D01*
X-9655182Y-11766321D01*
X-9440848Y-11708890D01*
X-9218954Y-11708890D01*
X-9004620Y-11766320D01*
G37*
G36*
X-11544620Y-11766323D02*
G01*
X-11352453Y-11877270D01*
X-11195550Y-12034173D01*
X-11084603Y-12226339D01*
X-11027172Y-12440673D01*
X-11027172Y-12662567D01*
X-11084602Y-12876901D01*
X-11195549Y-13069067D01*
X-11352452Y-13225971D01*
X-11544618Y-13336918D01*
X-11758952Y-13394349D01*
X-11980846Y-13394349D01*
X-12195180Y-13336919D01*
X-12387347Y-13225972D01*
X-12544250Y-13069069D01*
X-12655197Y-12876902D01*
X-12712628Y-12662569D01*
X-12712628Y-12440674D01*
X-12655198Y-12226341D01*
X-12544251Y-12034174D01*
X-12387348Y-11877271D01*
X-12195182Y-11766323D01*
X-11980848Y-11708893D01*
X-11758954Y-11708892D01*
X-11544620Y-11766323D01*
G37*
G36*
X-16624620Y-11766328D02*
G01*
X-16432453Y-11877275D01*
X-16275550Y-12034178D01*
X-16164603Y-12226344D01*
X-16107172Y-12440678D01*
X-16107172Y-12662572D01*
X-16164602Y-12876906D01*
X-16275549Y-13069072D01*
X-16432452Y-13225976D01*
X-16624618Y-13336923D01*
X-16838952Y-13394354D01*
X-17060846Y-13394354D01*
X-17275180Y-13336924D01*
X-17467347Y-13225977D01*
X-17624250Y-13069074D01*
X-17735197Y-12876908D01*
X-17792628Y-12662574D01*
X-17792628Y-12440679D01*
X-17735198Y-12226346D01*
X-17624251Y-12034179D01*
X-17467348Y-11877276D01*
X-17275182Y-11766329D01*
X-17060848Y-11708898D01*
X-16838954Y-11708898D01*
X-16624620Y-11766328D01*
G37*
G36*
X-6464620Y-11766318D02*
G01*
X-6272453Y-11877265D01*
X-6115550Y-12034168D01*
X-6004603Y-12226334D01*
X-5947172Y-12440667D01*
X-5947172Y-12662562D01*
X-6004602Y-12876896D01*
X-6115549Y-13069062D01*
X-6272452Y-13225965D01*
X-6464618Y-13336913D01*
X-6678952Y-13394344D01*
X-6900846Y-13394344D01*
X-7115180Y-13336913D01*
X-7307347Y-13225966D01*
X-7464250Y-13069063D01*
X-7575197Y-12876897D01*
X-7632628Y-12662564D01*
X-7632628Y-12440669D01*
X-7575198Y-12226335D01*
X-7464251Y-12034169D01*
X-7307348Y-11877266D01*
X-7115182Y-11766318D01*
X-6900848Y-11708888D01*
X-6678954Y-11708887D01*
X-6464620Y-11766318D01*
G37*
G36*
X1155380Y-11766310D02*
G01*
X1347547Y-11877257D01*
X1504450Y-12034160D01*
X1615397Y-12226326D01*
X1672828Y-12440660D01*
X1672828Y-12662554D01*
X1615398Y-12876888D01*
X1504451Y-13069054D01*
X1347548Y-13225958D01*
X1155382Y-13336905D01*
X941048Y-13394336D01*
X719154Y-13394336D01*
X504820Y-13336906D01*
X312653Y-13225959D01*
X155750Y-13069056D01*
X44803Y-12876889D01*
X-12628Y-12662556D01*
X-12628Y-12440661D01*
X44802Y-12226328D01*
X155749Y-12034161D01*
X312652Y-11877258D01*
X504818Y-11766310D01*
X719152Y-11708880D01*
X941046Y-11708880D01*
X1155380Y-11766310D01*
G37*
G36*
X-11544720Y-20913812D02*
G01*
X-11352553Y-21024759D01*
X-11195650Y-21181662D01*
X-11084703Y-21373829D01*
X-11027272Y-21588162D01*
X-11027272Y-21810057D01*
X-11084702Y-22024390D01*
X-11195649Y-22216557D01*
X-11352552Y-22373460D01*
X-11544718Y-22484408D01*
X-11759052Y-22541838D01*
X-11980946Y-22541839D01*
X-12195280Y-22484408D01*
X-12387447Y-22373461D01*
X-12544350Y-22216558D01*
X-12655297Y-22024392D01*
X-12712728Y-21810058D01*
X-12712728Y-21588164D01*
X-12655298Y-21373830D01*
X-12544351Y-21181664D01*
X-12387448Y-21024761D01*
X-12195282Y-20913813D01*
X-11980948Y-20856382D01*
X-11759054Y-20856382D01*
X-11544720Y-20913812D01*
G37*
G36*
X-16624720Y-20913818D02*
G01*
X-16432553Y-21024765D01*
X-16275650Y-21181668D01*
X-16164703Y-21373834D01*
X-16107272Y-21588167D01*
X-16107272Y-21810062D01*
X-16164702Y-22024396D01*
X-16275649Y-22216562D01*
X-16432552Y-22373465D01*
X-16624718Y-22484413D01*
X-16839052Y-22541844D01*
X-17060946Y-22541844D01*
X-17275280Y-22484413D01*
X-17467447Y-22373466D01*
X-17624350Y-22216563D01*
X-17735297Y-22024397D01*
X-17792728Y-21810064D01*
X-17792728Y-21588169D01*
X-17735298Y-21373835D01*
X-17624351Y-21181669D01*
X-17467448Y-21024766D01*
X-17275282Y-20913818D01*
X-17060948Y-20856388D01*
X-16839054Y-20856387D01*
X-16624720Y-20913818D01*
G37*
G36*
X-3924720Y-20913805D02*
G01*
X-3732553Y-21024752D01*
X-3575650Y-21181655D01*
X-3464703Y-21373821D01*
X-3407272Y-21588154D01*
X-3407272Y-21810049D01*
X-3464702Y-22024383D01*
X-3575649Y-22216549D01*
X-3732552Y-22373452D01*
X-3924718Y-22484400D01*
X-4139052Y-22541831D01*
X-4360946Y-22541831D01*
X-4575280Y-22484401D01*
X-4767447Y-22373453D01*
X-4924350Y-22216550D01*
X-5035297Y-22024384D01*
X-5092728Y-21810051D01*
X-5092728Y-21588156D01*
X-5035298Y-21373822D01*
X-4924351Y-21181656D01*
X-4767448Y-21024753D01*
X-4575282Y-20913805D01*
X-4360948Y-20856375D01*
X-4139054Y-20856374D01*
X-3924720Y-20913805D01*
G37*
G36*
X-19164720Y-20913820D02*
G01*
X-18972553Y-21024767D01*
X-18815650Y-21181670D01*
X-18704703Y-21373836D01*
X-18647272Y-21588170D01*
X-18647272Y-21810065D01*
X-18704702Y-22024398D01*
X-18815649Y-22216565D01*
X-18972552Y-22373468D01*
X-19164718Y-22484415D01*
X-19379052Y-22541846D01*
X-19600946Y-22541846D01*
X-19815280Y-22484416D01*
X-20007447Y-22373469D01*
X-20164350Y-22216566D01*
X-20275297Y-22024400D01*
X-20332728Y-21810066D01*
X-20332728Y-21588172D01*
X-20275298Y-21373838D01*
X-20164351Y-21181672D01*
X-20007448Y-21024768D01*
X-19815282Y-20913821D01*
X-19600948Y-20856390D01*
X-19379054Y-20856390D01*
X-19164720Y-20913820D01*
G37*
G36*
X-6464720Y-20913807D02*
G01*
X-6272553Y-21024754D01*
X-6115650Y-21181657D01*
X-6004703Y-21373823D01*
X-5947272Y-21588157D01*
X-5947272Y-21810052D01*
X-6004702Y-22024385D01*
X-6115649Y-22216552D01*
X-6272552Y-22373455D01*
X-6464718Y-22484402D01*
X-6679052Y-22541833D01*
X-6900946Y-22541833D01*
X-7115280Y-22484403D01*
X-7307447Y-22373456D01*
X-7464350Y-22216553D01*
X-7575297Y-22024387D01*
X-7632728Y-21810053D01*
X-7632728Y-21588159D01*
X-7575298Y-21373825D01*
X-7464351Y-21181659D01*
X-7307448Y-21024755D01*
X-7115282Y-20913808D01*
X-6900948Y-20856377D01*
X-6679054Y-20856377D01*
X-6464720Y-20913807D01*
G37*
G36*
X-9004720Y-20913810D02*
G01*
X-8812553Y-21024757D01*
X-8655650Y-21181660D01*
X-8544703Y-21373826D01*
X-8487272Y-21588160D01*
X-8487272Y-21810054D01*
X-8544702Y-22024388D01*
X-8655649Y-22216554D01*
X-8812552Y-22373458D01*
X-9004718Y-22484405D01*
X-9219052Y-22541836D01*
X-9440946Y-22541836D01*
X-9655280Y-22484406D01*
X-9847447Y-22373459D01*
X-10004350Y-22216556D01*
X-10115297Y-22024389D01*
X-10172728Y-21810056D01*
X-10172728Y-21588161D01*
X-10115298Y-21373828D01*
X-10004351Y-21181661D01*
X-9847448Y-21024758D01*
X-9655282Y-20913810D01*
X-9440948Y-20856380D01*
X-9219054Y-20856380D01*
X-9004720Y-20913810D01*
G37*
G36*
X-14084720Y-20913815D02*
G01*
X-13892553Y-21024762D01*
X-13735650Y-21181665D01*
X-13624703Y-21373831D01*
X-13567272Y-21588165D01*
X-13567272Y-21810059D01*
X-13624702Y-22024393D01*
X-13735649Y-22216559D01*
X-13892552Y-22373463D01*
X-14084718Y-22484410D01*
X-14299052Y-22541841D01*
X-14520946Y-22541841D01*
X-14735280Y-22484411D01*
X-14927447Y-22373464D01*
X-15084350Y-22216561D01*
X-15195297Y-22024395D01*
X-15252728Y-21810061D01*
X-15252728Y-21588167D01*
X-15195298Y-21373833D01*
X-15084351Y-21181666D01*
X-14927448Y-21024763D01*
X-14735282Y-20913816D01*
X-14520948Y-20856385D01*
X-14299054Y-20856385D01*
X-14084720Y-20913815D01*
G37*
G36*
X-859999Y-22549099D02*
G01*
X-2559999Y-22549101D01*
X-2560001Y-20849101D01*
X-860001Y-20849099D01*
X-859999Y-22549099D01*
G37*
G36*
X1155278Y23047436D02*
G01*
X1347445Y22936490D01*
X1504348Y22779587D01*
X1615296Y22587421D01*
X1672728Y22373088D01*
X1672729Y22151193D01*
X1615299Y21936859D01*
X1504352Y21744693D01*
X1347450Y21587789D01*
X1155284Y21476841D01*
X940950Y21419410D01*
X719056Y21419409D01*
X504722Y21476839D01*
X312555Y21587785D01*
X155652Y21744688D01*
X44704Y21936854D01*
X-12728Y22151187D01*
X-12729Y22373081D01*
X44701Y22587415D01*
X155648Y22779582D01*
X312550Y22936486D01*
X504716Y23047434D01*
X719050Y23104865D01*
X940944Y23104866D01*
X1155278Y23047436D01*
G37*
G36*
X6235278Y23047455D02*
G01*
X6427445Y22936508D01*
X6584348Y22779606D01*
X6695296Y22587440D01*
X6752728Y22373106D01*
X6752729Y22151212D01*
X6695299Y21936878D01*
X6584352Y21744711D01*
X6427450Y21587808D01*
X6235284Y21476860D01*
X6020950Y21419428D01*
X5799056Y21419427D01*
X5584722Y21476857D01*
X5392555Y21587804D01*
X5235652Y21744706D01*
X5124704Y21936872D01*
X5067272Y22151206D01*
X5067271Y22373100D01*
X5124701Y22587434D01*
X5235648Y22779601D01*
X5392550Y22936504D01*
X5584716Y23047452D01*
X5799050Y23104884D01*
X6020944Y23104885D01*
X6235278Y23047455D01*
G37*
G36*
X-6464722Y23047408D02*
G01*
X-6272555Y22936462D01*
X-6115652Y22779559D01*
X-6004704Y22587393D01*
X-5947272Y22373060D01*
X-5947271Y22151165D01*
X-6004701Y21936831D01*
X-6115648Y21744665D01*
X-6272550Y21587761D01*
X-6464716Y21476813D01*
X-6679050Y21419382D01*
X-6900944Y21419381D01*
X-7115278Y21476811D01*
X-7307445Y21587757D01*
X-7464348Y21744660D01*
X-7575296Y21936826D01*
X-7632728Y22151159D01*
X-7632729Y22373053D01*
X-7575299Y22587387D01*
X-7464352Y22779554D01*
X-7307450Y22936458D01*
X-7115284Y23047406D01*
X-6900950Y23104837D01*
X-6679056Y23104838D01*
X-6464722Y23047408D01*
G37*
G36*
X8775278Y23047464D02*
G01*
X8967445Y22936518D01*
X9124348Y22779615D01*
X9235296Y22587449D01*
X9292728Y22373116D01*
X9292729Y22151221D01*
X9235299Y21936887D01*
X9124352Y21744721D01*
X8967450Y21587817D01*
X8775284Y21476869D01*
X8560950Y21419438D01*
X8339056Y21419437D01*
X8124722Y21476867D01*
X7932555Y21587813D01*
X7775652Y21744716D01*
X7664704Y21936882D01*
X7607272Y22151215D01*
X7607271Y22373109D01*
X7664701Y22587443D01*
X7775648Y22779610D01*
X7932550Y22936514D01*
X8124716Y23047462D01*
X8339050Y23104893D01*
X8560944Y23104894D01*
X8775278Y23047464D01*
G37*
G36*
X-3924722Y23047417D02*
G01*
X-3732555Y22936471D01*
X-3575652Y22779568D01*
X-3464704Y22587402D01*
X-3407272Y22373069D01*
X-3407271Y22151174D01*
X-3464701Y21936841D01*
X-3575648Y21744674D01*
X-3732550Y21587770D01*
X-3924716Y21476822D01*
X-4139050Y21419391D01*
X-4360944Y21419390D01*
X-4575278Y21476820D01*
X-4767445Y21587766D01*
X-4924348Y21744669D01*
X-5035296Y21936835D01*
X-5092728Y22151168D01*
X-5092729Y22373063D01*
X-5035299Y22587397D01*
X-4924352Y22779563D01*
X-4767450Y22936467D01*
X-4575284Y23047415D01*
X-4360950Y23104846D01*
X-4139056Y23104847D01*
X-3924722Y23047417D01*
G37*
G36*
X-1384722Y23047427D02*
G01*
X-1192555Y22936480D01*
X-1035652Y22779578D01*
X-924704Y22587412D01*
X-867272Y22373078D01*
X-867271Y22151184D01*
X-924701Y21936850D01*
X-1035648Y21744683D01*
X-1192550Y21587780D01*
X-1384716Y21476832D01*
X-1599050Y21419400D01*
X-1820944Y21419399D01*
X-2035278Y21476829D01*
X-2227445Y21587776D01*
X-2384348Y21744678D01*
X-2495296Y21936844D01*
X-2552728Y22151178D01*
X-2552729Y22373072D01*
X-2495299Y22587406D01*
X-2384352Y22779573D01*
X-2227450Y22936476D01*
X-2035284Y23047424D01*
X-1820950Y23104856D01*
X-1599056Y23104857D01*
X-1384722Y23047427D01*
G37*
G36*
X3695278Y23047445D02*
G01*
X3887445Y22936499D01*
X4044348Y22779596D01*
X4155296Y22587430D01*
X4212728Y22373097D01*
X4212729Y22151202D01*
X4155299Y21936869D01*
X4044352Y21744702D01*
X3887450Y21587798D01*
X3695284Y21476850D01*
X3480950Y21419419D01*
X3259056Y21419418D01*
X3044722Y21476848D01*
X2852555Y21587794D01*
X2695652Y21744697D01*
X2584704Y21936863D01*
X2527272Y22151196D01*
X2527271Y22373091D01*
X2584701Y22587425D01*
X2695648Y22779591D01*
X2852550Y22936495D01*
X3044716Y23047443D01*
X3259050Y23104874D01*
X3480944Y23104875D01*
X3695278Y23047445D01*
G37*
G36*
X-8479997Y21412103D02*
G01*
X-10179997Y21412097D01*
X-10180003Y23112097D01*
X-8480003Y23112103D01*
X-8479997Y21412103D01*
G37*
G36*
X-19164722Y23047336D02*
G01*
X-18972555Y22936390D01*
X-18815652Y22779487D01*
X-18704704Y22587321D01*
X-18647272Y22372988D01*
X-18647271Y22151093D01*
X-18704701Y21936759D01*
X-18815648Y21744593D01*
X-18972550Y21587689D01*
X-19164716Y21476741D01*
X-19379050Y21419310D01*
X-19600944Y21419309D01*
X-19815278Y21476739D01*
X-20007445Y21587685D01*
X-20164348Y21744588D01*
X-20275296Y21936754D01*
X-20332728Y22151087D01*
X-20332729Y22372981D01*
X-20275299Y22587315D01*
X-20164352Y22779482D01*
X-20007450Y22936386D01*
X-19815284Y23047334D01*
X-19600950Y23104765D01*
X-19379056Y23104766D01*
X-19164722Y23047336D01*
G37*
G36*
X-14084722Y23047355D02*
G01*
X-13892555Y22936408D01*
X-13735652Y22779506D01*
X-13624704Y22587340D01*
X-13567272Y22373006D01*
X-13567271Y22151112D01*
X-13624701Y21936778D01*
X-13735648Y21744611D01*
X-13892550Y21587708D01*
X-14084716Y21476760D01*
X-14299050Y21419328D01*
X-14520944Y21419327D01*
X-14735278Y21476757D01*
X-14927445Y21587704D01*
X-15084348Y21744606D01*
X-15195296Y21936772D01*
X-15252728Y22151106D01*
X-15252729Y22373000D01*
X-15195299Y22587334D01*
X-15084352Y22779501D01*
X-14927450Y22936404D01*
X-14735284Y23047352D01*
X-14520950Y23104784D01*
X-14299056Y23104785D01*
X-14084722Y23047355D01*
G37*
G36*
X-26784722Y23047308D02*
G01*
X-26592555Y22936362D01*
X-26435652Y22779459D01*
X-26324704Y22587293D01*
X-26267272Y22372960D01*
X-26267271Y22151065D01*
X-26324701Y21936731D01*
X-26435648Y21744565D01*
X-26592550Y21587661D01*
X-26784716Y21476713D01*
X-26999050Y21419282D01*
X-27220944Y21419281D01*
X-27435278Y21476711D01*
X-27627445Y21587657D01*
X-27784348Y21744560D01*
X-27895296Y21936726D01*
X-27952728Y22151059D01*
X-27952729Y22372953D01*
X-27895299Y22587287D01*
X-27784352Y22779454D01*
X-27627450Y22936358D01*
X-27435284Y23047306D01*
X-27220950Y23104737D01*
X-26999056Y23104738D01*
X-26784722Y23047308D01*
G37*
G36*
X-11544722Y23047364D02*
G01*
X-11352555Y22936418D01*
X-11195652Y22779515D01*
X-11084704Y22587349D01*
X-11027272Y22373016D01*
X-11027271Y22151121D01*
X-11084701Y21936787D01*
X-11195648Y21744621D01*
X-11352550Y21587717D01*
X-11544716Y21476769D01*
X-11759050Y21419338D01*
X-11980944Y21419337D01*
X-12195278Y21476767D01*
X-12387445Y21587713D01*
X-12544348Y21744616D01*
X-12655296Y21936782D01*
X-12712728Y22151115D01*
X-12712729Y22373009D01*
X-12655299Y22587343D01*
X-12544352Y22779510D01*
X-12387450Y22936414D01*
X-12195284Y23047362D01*
X-11980950Y23104793D01*
X-11759056Y23104794D01*
X-11544722Y23047364D01*
G37*
G36*
X-24244722Y23047317D02*
G01*
X-24052555Y22936371D01*
X-23895652Y22779468D01*
X-23784704Y22587302D01*
X-23727272Y22372969D01*
X-23727271Y22151074D01*
X-23784701Y21936741D01*
X-23895648Y21744574D01*
X-24052550Y21587670D01*
X-24244716Y21476722D01*
X-24459050Y21419291D01*
X-24680944Y21419290D01*
X-24895278Y21476720D01*
X-25087445Y21587666D01*
X-25244348Y21744569D01*
X-25355296Y21936735D01*
X-25412728Y22151068D01*
X-25412729Y22372963D01*
X-25355299Y22587297D01*
X-25244352Y22779463D01*
X-25087450Y22936367D01*
X-24895284Y23047315D01*
X-24680950Y23104746D01*
X-24459056Y23104747D01*
X-24244722Y23047317D01*
G37*
G36*
X-21704722Y23047327D02*
G01*
X-21512555Y22936380D01*
X-21355652Y22779478D01*
X-21244704Y22587312D01*
X-21187272Y22372978D01*
X-21187271Y22151084D01*
X-21244701Y21936750D01*
X-21355648Y21744583D01*
X-21512550Y21587680D01*
X-21704716Y21476732D01*
X-21919050Y21419300D01*
X-22140944Y21419299D01*
X-22355278Y21476729D01*
X-22547445Y21587676D01*
X-22704348Y21744578D01*
X-22815296Y21936744D01*
X-22872728Y22151078D01*
X-22872729Y22372972D01*
X-22815299Y22587306D01*
X-22704352Y22779473D01*
X-22547450Y22936376D01*
X-22355284Y23047324D01*
X-22140950Y23104756D01*
X-21919056Y23104757D01*
X-21704722Y23047327D01*
G37*
G36*
X-16624722Y23047345D02*
G01*
X-16432555Y22936399D01*
X-16275652Y22779496D01*
X-16164704Y22587330D01*
X-16107272Y22372997D01*
X-16107271Y22151102D01*
X-16164701Y21936769D01*
X-16275648Y21744602D01*
X-16432550Y21587698D01*
X-16624716Y21476750D01*
X-16839050Y21419319D01*
X-17060944Y21419318D01*
X-17275278Y21476748D01*
X-17467445Y21587694D01*
X-17624348Y21744597D01*
X-17735296Y21936763D01*
X-17792728Y22151096D01*
X-17792729Y22372991D01*
X-17735299Y22587325D01*
X-17624352Y22779491D01*
X-17467450Y22936395D01*
X-17275284Y23047343D01*
X-17060950Y23104774D01*
X-16839056Y23104775D01*
X-16624722Y23047345D01*
G37*
G36*
X-28799997Y21412003D02*
G01*
X-30499997Y21411997D01*
X-30500003Y23111997D01*
X-28800003Y23112003D01*
X-28799997Y21412003D01*
G37*
G36*
X44722504Y-3489993D02*
G01*
X40762504Y-3490007D01*
X40762496Y-1510007D01*
X44722496Y-1509993D01*
X44722504Y-3489993D01*
G37*
G36*
X44111335Y3414646D02*
G01*
X44335153Y3285426D01*
X44517899Y3102680D01*
X44647121Y2878864D01*
X44714012Y2629228D01*
X44714013Y2370786D01*
X44647124Y2121150D01*
X44517904Y1897333D01*
X44335158Y1714586D01*
X44111342Y1585364D01*
X43861706Y1518474D01*
X43603264Y1518473D01*
X41623264Y1518465D01*
X41373628Y1585354D01*
X41149811Y1714574D01*
X40967064Y1897320D01*
X40837842Y2121136D01*
X40770952Y2370772D01*
X40770951Y2629214D01*
X40837840Y2878850D01*
X40967060Y3102667D01*
X41149805Y3285414D01*
X41373622Y3414636D01*
X41623257Y3481526D01*
X43861699Y3481535D01*
X44111335Y3414646D01*
G37*
G36*
X32629493Y1139997D02*
G01*
X32844833Y1015671D01*
X33020658Y839848D01*
X33144985Y624509D01*
X33209341Y384330D01*
X33209342Y135677D01*
X33144987Y-104503D01*
X33020662Y-319842D01*
X32844839Y-495667D01*
X32629500Y-619994D01*
X32389320Y-684351D01*
X32140668Y-684352D01*
X32045668Y-684352D01*
X31805488Y-619997D01*
X31590148Y-495671D01*
X31414324Y-319848D01*
X31289997Y-104509D01*
X31225640Y135670D01*
X31225639Y384323D01*
X31289994Y624503D01*
X31414319Y839842D01*
X31590143Y1015667D01*
X31805481Y1139994D01*
X32045661Y1204351D01*
X32389313Y1204352D01*
X32629493Y1139997D01*
G37*
G36*
X33217503Y-3232496D02*
G01*
X31217503Y-3232504D01*
X31217497Y-1327504D01*
X33217497Y-1327496D01*
X33217503Y-3232496D01*
G37*
G36*
X32629484Y3679997D02*
G01*
X32844824Y3555671D01*
X33020648Y3379848D01*
X33144975Y3164509D01*
X33209332Y2924330D01*
X33209333Y2675677D01*
X33144978Y2435497D01*
X33020653Y2220158D01*
X32844829Y2044333D01*
X32629491Y1920006D01*
X32389311Y1855649D01*
X32140659Y1855648D01*
X32045659Y1855648D01*
X31805479Y1920003D01*
X31590139Y2044329D01*
X31414314Y2220152D01*
X31289987Y2435491D01*
X31225631Y2675670D01*
X31225630Y2924323D01*
X31289985Y3164503D01*
X31414310Y3379842D01*
X31590133Y3555667D01*
X31805472Y3679994D01*
X32045652Y3744351D01*
X32389304Y3744352D01*
X32629484Y3679997D01*
G37*
G36*
X22497997Y1116402D02*
G01*
X21297997Y1116398D01*
X21297984Y4616398D01*
X22497984Y4616402D01*
X22497997Y1116402D01*
G37*
G36*
X22498016Y-4223598D02*
G01*
X21298016Y-4223602D01*
X21298003Y-723602D01*
X22498003Y-723598D01*
X22498016Y-4223598D01*
G37*
G36*
X30332852Y22478981D02*
G01*
X30558931Y22348456D01*
X30743523Y22163864D01*
X30874050Y21937787D01*
X30941616Y21685630D01*
X30941617Y21424577D01*
X30874053Y21172420D01*
X30743528Y20946341D01*
X30558936Y20761749D01*
X30332859Y20631222D01*
X30080702Y20563656D01*
X29819650Y20563655D01*
X29567492Y20631219D01*
X29341414Y20761744D01*
X29156821Y20946336D01*
X29026294Y21172413D01*
X28958728Y21424570D01*
X28958727Y21685623D01*
X29026291Y21937780D01*
X29156817Y22163859D01*
X29341408Y22348451D01*
X29567485Y22478978D01*
X29819642Y22546544D01*
X30080695Y22546545D01*
X30332852Y22478981D01*
G37*
G36*
X30950204Y12955104D02*
G01*
X28950204Y12955096D01*
X28950196Y14955096D01*
X30950196Y14955104D01*
X30950204Y12955104D01*
G37*
G36*
X-37537798Y-2960002D02*
G01*
X-37537802Y-4660002D01*
X-39237802Y-4659998D01*
X-39237798Y-2959998D01*
X-37537798Y-2960002D01*
G37*
G36*
X-38062510Y-484703D02*
G01*
X-37870344Y-595651D01*
X-37713442Y-752555D01*
X-37602495Y-944721D01*
X-37545065Y-1159055D01*
X-37545065Y-1380949D01*
X-37602497Y-1595283D01*
X-37713444Y-1787449D01*
X-37870348Y-1944352D01*
X-38062514Y-2055298D01*
X-38276848Y-2112728D01*
X-38498743Y-2112728D01*
X-38713076Y-2055297D01*
X-38905242Y-1944349D01*
X-39062145Y-1787445D01*
X-39173092Y-1595279D01*
X-39230522Y-1380945D01*
X-39230521Y-1159051D01*
X-39173090Y-944717D01*
X-39062142Y-752551D01*
X-38905239Y-595648D01*
X-38713072Y-484702D01*
X-38498738Y-427272D01*
X-38276844Y-427272D01*
X-38062510Y-484703D01*
G37*
G36*
X-38062504Y2055297D02*
G01*
X-37870338Y1944349D01*
X-37713435Y1787445D01*
X-37602488Y1595279D01*
X-37545058Y1380945D01*
X-37545059Y1159051D01*
X-37602490Y944717D01*
X-37713438Y752551D01*
X-37870341Y595648D01*
X-38062508Y484702D01*
X-38276841Y427272D01*
X-38498736Y427272D01*
X-38713070Y484703D01*
X-38905236Y595651D01*
X-39062138Y752555D01*
X-39173085Y944721D01*
X-39230515Y1159055D01*
X-39230514Y1380949D01*
X-39173083Y1595283D01*
X-39062135Y1787449D01*
X-38905232Y1944352D01*
X-38713065Y2055298D01*
X-38498732Y2112728D01*
X-38276837Y2112728D01*
X-38062504Y2055297D01*
G37*
G36*
X-38062497Y4595297D02*
G01*
X-37870331Y4484349D01*
X-37713428Y4327445D01*
X-37602481Y4135279D01*
X-37545051Y3920945D01*
X-37545052Y3699051D01*
X-37602483Y3484717D01*
X-37713431Y3292551D01*
X-37870334Y3135648D01*
X-38062501Y3024702D01*
X-38276835Y2967272D01*
X-38498729Y2967272D01*
X-38713063Y3024703D01*
X-38905229Y3135651D01*
X-39062131Y3292555D01*
X-39173078Y3484721D01*
X-39230508Y3699055D01*
X-39230508Y3920949D01*
X-39173077Y4135283D01*
X-39062129Y4327449D01*
X-38905225Y4484352D01*
X-38713059Y4595298D01*
X-38498725Y4652728D01*
X-38276830Y4652728D01*
X-38062497Y4595297D01*
G37*
G36*
X17930547Y8146604D02*
G01*
X18111409Y8042183D01*
X18259083Y7894509D01*
X18363504Y7713647D01*
X18417556Y7511921D01*
X18417556Y7303079D01*
X18363504Y7101353D01*
X18259083Y6920491D01*
X18111409Y6772817D01*
X17930547Y6668396D01*
X17728821Y6614344D01*
X17519979Y6614344D01*
X17318253Y6668396D01*
X17137391Y6772817D01*
X16989717Y6920491D01*
X16885296Y7101353D01*
X16831244Y7303079D01*
X16831244Y7511921D01*
X16885296Y7713647D01*
X16989717Y7894509D01*
X17137391Y8042183D01*
X17318253Y8146604D01*
X17519979Y8200656D01*
X17728821Y8200656D01*
X17930547Y8146604D01*
G37*
G36*
X7770547Y8146604D02*
G01*
X7951409Y8042183D01*
X8099083Y7894509D01*
X8203504Y7713647D01*
X8257556Y7511921D01*
X8257556Y7303079D01*
X8203504Y7101353D01*
X8099083Y6920491D01*
X7951409Y6772817D01*
X7770547Y6668396D01*
X7568821Y6614344D01*
X7359979Y6614344D01*
X7158253Y6668396D01*
X6977391Y6772817D01*
X6829717Y6920491D01*
X6725296Y7101353D01*
X6671244Y7303079D01*
X6671244Y7511921D01*
X6725296Y7713647D01*
X6829717Y7894509D01*
X6977391Y8042183D01*
X7158253Y8146604D01*
X7359979Y8200656D01*
X7568821Y8200656D01*
X7770547Y8146604D01*
G37*
G36*
X5386147Y8146604D02*
G01*
X5567009Y8042183D01*
X5714683Y7894509D01*
X5819104Y7713647D01*
X5873156Y7511921D01*
X5873156Y7303079D01*
X5819104Y7101353D01*
X5714683Y6920491D01*
X5567009Y6772817D01*
X5386147Y6668396D01*
X5184421Y6614344D01*
X4975579Y6614344D01*
X4773853Y6668396D01*
X4592991Y6772817D01*
X4445317Y6920491D01*
X4340896Y7101353D01*
X4286844Y7303079D01*
X4286844Y7511921D01*
X4340896Y7713647D01*
X4445317Y7894509D01*
X4592991Y8042183D01*
X4773853Y8146604D01*
X4975579Y8200656D01*
X5184421Y8200656D01*
X5386147Y8146604D01*
G37*
G36*
X-4773853Y8146604D02*
G01*
X-4592991Y8042183D01*
X-4445317Y7894509D01*
X-4340896Y7713647D01*
X-4286844Y7511921D01*
X-4286844Y7303079D01*
X-4340896Y7101353D01*
X-4445317Y6920491D01*
X-4592991Y6772817D01*
X-4773853Y6668396D01*
X-4975579Y6614344D01*
X-5184421Y6614344D01*
X-5386147Y6668396D01*
X-5567009Y6772817D01*
X-5714683Y6920491D01*
X-5819104Y7101353D01*
X-5873156Y7303079D01*
X-5873156Y7511921D01*
X-5819104Y7713647D01*
X-5714683Y7894509D01*
X-5567009Y8042183D01*
X-5386147Y8146604D01*
X-5184421Y8200656D01*
X-4975579Y8200656D01*
X-4773853Y8146604D01*
G37*
G36*
X6878087Y35696D02*
G01*
X7015316Y-43533D01*
X7127364Y-155580D01*
X7206594Y-292809D01*
X7247607Y-445868D01*
X7247607Y-604327D01*
X7206596Y-757387D01*
X7127367Y-894616D01*
X7015320Y-1006664D01*
X6878091Y-1085894D01*
X6725032Y-1126907D01*
X6566573Y-1126907D01*
X6413513Y-1085896D01*
X6276284Y-1006667D01*
X6164236Y-894620D01*
X6085006Y-757391D01*
X6043993Y-604332D01*
X6043993Y-445873D01*
X6085004Y-292813D01*
X6164233Y-155584D01*
X6276280Y-43536D01*
X6413509Y35694D01*
X6566568Y76707D01*
X6725027Y76707D01*
X6878087Y35696D01*
G37*
G36*
X6878068Y5115696D02*
G01*
X7015298Y5036467D01*
X7127345Y4924420D01*
X7206575Y4787191D01*
X7247588Y4634132D01*
X7247589Y4475673D01*
X7206577Y4322613D01*
X7127348Y4185384D01*
X7015301Y4073336D01*
X6878072Y3994106D01*
X6725013Y3953093D01*
X6566554Y3953093D01*
X6413495Y3994104D01*
X6276265Y4073333D01*
X6164217Y4185380D01*
X6084987Y4322609D01*
X6043975Y4475668D01*
X6043974Y4634127D01*
X6084986Y4787187D01*
X6164215Y4924416D01*
X6276261Y5036464D01*
X6413490Y5115694D01*
X6566550Y5156707D01*
X6725009Y5156707D01*
X6878068Y5115696D01*
G37*
G36*
X-44624486Y-24882837D02*
G01*
X-43991468Y-25248311D01*
X-43474611Y-25765168D01*
X-43109137Y-26398186D01*
X-42919954Y-27104227D01*
X-42919954Y-27835173D01*
X-43109137Y-28541214D01*
X-43474611Y-29174232D01*
X-43991468Y-29691089D01*
X-44624486Y-30056563D01*
X-45330527Y-30245746D01*
X-46061473Y-30245746D01*
X-46767514Y-30056563D01*
X-47400532Y-29691089D01*
X-47917389Y-29174232D01*
X-48282863Y-28541214D01*
X-48472046Y-27835173D01*
X-48472046Y-27104227D01*
X-48282863Y-26398186D01*
X-47917389Y-25765168D01*
X-47400532Y-25248311D01*
X-46767514Y-24882837D01*
X-46061473Y-24693654D01*
X-45330527Y-24693654D01*
X-44624486Y-24882837D01*
G37*
G36*
X-45330519Y30677145D02*
G01*
X-44624480Y30487960D01*
X-43991462Y30122485D01*
X-43474606Y29605626D01*
X-43109134Y28972607D01*
X-42919953Y28266566D01*
X-42919955Y27535619D01*
X-43109140Y26829580D01*
X-43474615Y26196562D01*
X-43991474Y25679706D01*
X-44624493Y25314234D01*
X-45330534Y25125053D01*
X-46061481Y25125055D01*
X-46767520Y25314240D01*
X-47400538Y25679715D01*
X-47917394Y26196574D01*
X-48282866Y26829593D01*
X-48472047Y27535634D01*
X-48472045Y28266581D01*
X-48282860Y28972620D01*
X-47917385Y29605638D01*
X-47400526Y30122494D01*
X-46767507Y30487966D01*
X-46061466Y30677147D01*
X-45330519Y30677145D01*
G37*
G36*
X46380281Y30677145D02*
G01*
X47086320Y30487960D01*
X47719338Y30122485D01*
X48236194Y29605626D01*
X48601666Y28972607D01*
X48790847Y28266566D01*
X48790845Y27535619D01*
X48601660Y26829580D01*
X48236185Y26196562D01*
X47719326Y25679706D01*
X47086307Y25314234D01*
X46380266Y25125053D01*
X45649319Y25125055D01*
X44943280Y25314240D01*
X44310262Y25679715D01*
X43793406Y26196574D01*
X43427934Y26829593D01*
X43238753Y27535634D01*
X43238755Y28266581D01*
X43427940Y28972620D01*
X43793415Y29605638D01*
X44310274Y30122494D01*
X44943293Y30487966D01*
X45649334Y30677147D01*
X46380281Y30677145D01*
G37*
G36*
X47086314Y-24882837D02*
G01*
X47719332Y-25248311D01*
X48236189Y-25765168D01*
X48601663Y-26398186D01*
X48790846Y-27104227D01*
X48790846Y-27835173D01*
X48601663Y-28541214D01*
X48236189Y-29174232D01*
X47719332Y-29691089D01*
X47086314Y-30056563D01*
X46380273Y-30245746D01*
X45649327Y-30245746D01*
X44943286Y-30056563D01*
X44310268Y-29691089D01*
X43793411Y-29174232D01*
X43427937Y-28541214D01*
X43238754Y-27835173D01*
X43238754Y-27104227D01*
X43427937Y-26398186D01*
X43793411Y-25765168D01*
X44310268Y-25248311D01*
X44943286Y-24882837D01*
X45649327Y-24693654D01*
X46380273Y-24693654D01*
X47086314Y-24882837D01*
G37*
%TD*%
M02*
